<svg version="1.1" id="Layer_1" xmlns="http://www.w3.org/2000/svg" xmlns:xlink="http://www.w3.org/1999/xlink" x="0px" y="0px"
	 width="100%" viewBox="0 0 496 496" enable-background="new 0 0 496 496" xml:space="preserve">
<path fill="#000000" opacity="1.000000" stroke="none" 
	d="
M133.885956,315.688721 
	C144.209854,323.269409 153.272659,321.974762 161.617233,313.119995 
	C162.288513,312.407654 163.177200,311.833099 164.066116,311.404572 
	C167.978027,309.518799 167.682449,307.001282 165.601578,303.793793 
	C159.186798,293.906097 154.933441,283.105133 152.677872,271.549377 
	C147.627975,245.677719 151.076614,221.189148 165.174774,198.636841 
	C167.504242,194.910477 167.593582,192.751495 163.590439,190.356125 
	C159.174591,187.713821 155.036026,184.566971 150.979889,181.381165 
	C148.781357,179.654358 147.004730,179.878540 144.637772,180.962479 
	C126.652603,189.198608 133.125290,189.491318 114.353691,180.929703 
	C106.174942,177.199432 98.082207,173.277634 89.863632,169.638809 
	C85.533615,167.721680 83.583763,164.839050 83.635307,159.971039 
	C83.811722,143.310486 83.765167,126.645950 83.613258,109.984673 
	C83.576233,105.924591 85.154060,103.466339 88.771713,101.801804 
	C100.875465,96.232674 112.927773,90.551064 124.972511,84.854851 
	C128.049774,83.399551 130.977615,83.348541 134.081009,84.808495 
	C146.136475,90.479858 158.206528,96.121735 170.324890,101.656937 
	C173.950424,103.312943 175.462509,105.736946 175.419815,109.825890 
	C175.244110,126.653252 175.206238,143.485458 175.437683,160.311462 
	C175.502167,165.000000 173.932495,167.862564 169.599075,169.533264 
	C166.988739,170.539658 164.553558,172.000305 161.321213,173.615936 
	C165.474426,177.712067 169.874527,180.511581 174.347778,183.164932 
	C176.325317,184.337921 177.311935,182.391602 178.426865,181.258850 
	C198.764557,160.596512 223.442017,150.319870 252.413147,150.698685 
	C280.063599,151.060257 303.649933,161.302292 322.936310,181.051041 
	C326.006897,184.195236 328.019135,184.356628 331.188751,181.786423 
	C334.383850,179.195541 338.163635,177.340530 341.326050,174.079712 
	C338.470062,171.497864 334.984650,170.712906 331.920135,169.224106 
	C328.369080,167.498947 326.654419,164.959671 326.668365,160.975708 
	C326.728424,143.813507 326.709503,126.650864 326.659393,109.488556 
	C326.648926,105.903633 328.203979,103.485443 331.405182,101.994698 
	C343.783051,96.230530 356.156311,90.456429 368.523285,84.668938 
	C371.083862,83.470634 373.617310,83.304260 376.226196,84.514771 
	C388.915314,90.402428 401.606110,96.286560 414.312378,102.137062 
	C417.244080,103.486938 418.386292,105.668465 418.372131,108.886391 
	C418.294403,126.548355 418.286194,144.211151 418.385559,161.872925 
	C418.405243,165.367737 416.906281,167.501511 413.885376,168.900513 
	C401.342896,174.709015 388.794220,180.504944 376.290436,186.395950 
	C373.002258,187.945145 369.925873,187.298492 367.303589,185.419235 
	C357.994110,178.747696 350.309967,180.996933 342.261139,188.255905 
	C335.047058,194.762070 334.732941,194.127136 339.201080,203.054077 
	C356.093536,236.803345 356.015472,270.247803 336.737183,303.081421 
	C334.544678,306.815552 334.808929,308.805359 338.455078,311.050079 
	C342.842529,313.751190 346.974487,316.882477 351.111084,319.969543 
	C353.216187,321.540497 355.352539,322.162933 357.515717,320.569702 
	C368.142273,312.743164 378.311707,314.842560 388.953064,320.992096 
	C396.709534,325.474457 405.116455,328.857361 413.334167,332.503296 
	C416.812195,334.046478 418.429504,336.172943 418.397400,340.111969 
	C418.256256,357.439850 418.267090,374.770172 418.403748,392.098206 
	C418.433899,395.922699 417.147980,398.308472 413.610504,399.910767 
	C401.477417,405.406494 389.399170,411.026398 377.367249,416.740479 
	C374.063568,418.309448 371.088837,418.217072 367.837952,416.671936 
	C355.956665,411.024811 344.056488,405.413361 332.074432,399.984924 
	C328.188446,398.224365 326.639618,395.530029 326.657013,391.393311 
	C326.728485,374.397797 326.731598,357.401520 326.633179,340.406250 
	C326.611053,336.584564 328.080078,334.088043 331.589447,332.609375 
	C334.645142,331.321869 337.620026,329.842590 341.168762,328.198792 
	C337.142578,323.843201 332.342865,321.259399 327.869812,318.322540 
	C325.700500,316.898224 324.651184,319.374786 323.485352,320.562744 
	C311.604797,332.668884 297.891113,341.941803 281.509766,346.628815 
	C242.727798,357.725189 208.441071,349.795135 179.400681,321.417816 
	C176.301773,318.389648 174.132462,318.192505 171.066711,320.839508 
	C168.340424,323.193390 164.817017,324.594208 162.453995,327.867310 
	C164.439529,330.520294 167.486511,331.191833 170.108093,332.407593 
	C173.646835,334.048706 175.452835,336.330200 175.413147,340.488007 
	C175.249420,357.648895 175.264542,374.812897 175.404175,391.974213 
	C175.437469,396.066376 173.762131,398.435181 170.150009,400.077148 
	C158.023834,405.589417 145.952896,411.224243 133.894592,416.884064 
	C130.964798,418.259186 128.226898,418.276642 125.284607,416.901886 
	C113.214325,411.262024 101.111015,405.692352 88.997009,400.146759 
	C85.228882,398.421814 83.614456,395.677155 83.643990,391.469086 
	C83.763298,374.474152 83.735275,357.477509 83.630135,340.482300 
	C83.607834,336.878357 84.932327,334.380249 88.154564,332.886475 
	C100.694778,327.072845 113.239334,321.268555 125.790314,315.478241 
	C128.355759,314.294678 130.945160,314.301819 133.885956,315.688721 
M251.417892,260.092316 
	C250.655365,257.739441 252.814590,256.973572 253.868134,255.621994 
	C256.856750,251.787888 259.472260,250.442383 264.284576,254.163528 
	C271.794403,259.970520 281.936096,259.221741 289.287994,253.101257 
	C297.095764,246.601273 304.264008,239.346573 310.852051,231.627640 
	C317.987366,223.267502 317.713562,211.520248 310.472565,203.294052 
	C306.742493,199.056488 302.768860,194.946091 298.433167,191.347000 
	C289.320465,183.782471 277.546082,184.144363 268.908966,192.191681 
	C262.576904,198.091370 256.452972,204.236526 250.531143,210.548920 
	C243.151505,218.415268 242.091492,228.624695 247.338028,237.204697 
	C251.303146,243.689117 251.213593,243.596115 245.625427,248.976929 
	C243.477982,251.044693 242.004623,250.890671 239.686432,249.196289 
	C229.650299,241.860855 218.770737,242.607117 209.825333,251.191147 
	C203.938522,256.840118 198.155243,262.605316 192.505219,268.490845 
	C183.544815,277.824768 183.592087,290.466919 192.525513,299.852051 
	C195.853271,303.348083 199.210022,306.837585 202.788940,310.069427 
	C211.522476,317.955933 222.992081,318.354248 231.800095,310.649078 
	C238.303513,304.959900 244.375168,298.749451 250.368393,292.511108 
	C260.029083,282.455292 260.392670,271.864166 251.417892,260.092316 
M385.135193,358.748566 
	C379.670746,360.280914 377.803314,363.655029 378.162262,369.457764 
	C378.726013,378.570587 378.279663,387.743927 378.354492,396.890869 
	C378.368622,398.619507 377.696808,400.551971 379.751160,402.618042 
	C388.086121,398.673065 396.618652,394.689941 405.091675,390.584015 
	C407.122528,389.599915 406.656067,387.447693 406.664001,385.668152 
	C406.701813,377.186035 406.749420,368.703003 406.655975,360.221771 
	C406.618408,356.813538 407.202209,353.330444 405.938629,349.228058 
	C398.996735,352.393921 392.403198,355.400909 385.135193,358.748566 
M135.323578,374.525879 
	C135.323578,383.722992 135.323578,392.920135 135.323578,403.062012 
	C144.850082,398.678345 153.134827,394.861206 161.424698,391.055267 
	C163.192017,390.243896 163.681808,388.785675 163.676086,386.981384 
	C163.638641,375.164917 163.634811,363.348328 163.568695,351.532043 
	C163.565567,350.971405 163.076355,350.413544 162.710144,349.634460 
	C156.738266,351.455627 151.743790,355.068420 146.089935,356.811493 
	C137.490051,359.462738 133.347717,364.376129 135.323578,374.525879 
M388.009583,126.606354 
	C386.800385,127.155846 385.638306,127.876511 384.373688,128.224686 
	C379.344330,129.609375 377.892609,132.807068 378.194977,137.908661 
	C378.646729,145.530487 378.244293,153.199677 378.352325,160.846634 
	C378.400391,164.249802 377.767365,167.732620 379.123383,171.898651 
	C387.082489,168.220581 394.662964,164.594040 402.355164,161.222504 
	C405.508972,159.840179 406.829163,157.946671 406.757874,154.391953 
	C406.544434,143.754913 406.697479,133.110809 406.653595,122.469696 
	C406.648499,121.236351 407.134766,119.743408 405.206787,118.734131 
	C399.854797,121.185776 394.278229,123.740295 388.009583,126.606354 
M366.636353,168.590286 
	C366.641724,157.603134 366.661835,146.615967 366.638672,135.628876 
	C366.634552,133.686050 367.137695,131.440552 364.875366,130.302338 
	C356.471222,126.074104 347.943115,122.124619 338.410950,118.355621 
	C338.410950,131.810486 338.407013,144.406281 338.416931,157.002060 
	C338.417938,158.286804 339.071442,159.255997 340.205963,159.786850 
	C348.039917,163.452393 355.881592,167.101715 363.739166,170.716309 
	C365.127075,171.354767 366.387543,171.360229 366.636353,168.590286 
M113.901726,398.533478 
	C116.990852,399.508606 119.633125,401.775970 123.646957,402.146301 
	C123.646957,391.946167 122.962280,382.110687 123.854095,372.420319 
	C124.628654,364.004059 121.713203,359.636932 113.866203,357.091766 
	C107.828964,355.133575 102.199364,351.918610 95.433746,348.826080 
	C95.433746,362.682770 95.416389,375.422943 95.450996,388.162933 
	C95.456703,390.264862 97.310257,390.715820 98.785225,391.413818 
	C103.593407,393.689148 108.413147,395.940094 113.901726,398.533478 
M163.652130,155.868073 
	C163.656906,145.066727 163.589722,134.264587 163.705658,123.464439 
	C163.746002,119.705872 162.494415,118.526405 158.958923,120.183235 
	C152.343719,123.283318 145.752243,126.442032 139.053238,129.351501 
	C136.171097,130.603256 135.217148,132.434296 135.259064,135.500092 
	C135.404495,146.133270 135.295624,156.769775 135.327591,167.404877 
	C135.331375,168.667328 134.944290,170.105865 136.966629,171.586563 
	C145.097260,167.732254 153.601974,163.722061 162.079987,159.656235 
	C163.223099,159.108047 163.580841,157.943573 163.652130,155.868073 
M123.649590,162.390289 
	C123.648621,157.233612 122.985580,151.972534 123.778984,146.941116 
	C125.663589,134.989899 121.891701,127.212883 109.552544,124.370132 
	C107.015579,123.785652 104.744293,122.118324 102.281052,121.121925 
	C100.214348,120.285919 98.375130,118.511116 95.347862,119.338531 
	C95.347862,127.586899 96.186203,135.980865 95.144897,144.134796 
	C93.701881,155.434280 97.073067,162.473633 108.558327,165.242279 
	C112.047081,166.083313 115.206665,168.248428 118.562195,169.702835 
	C119.997246,170.324860 121.320190,171.718475 123.649139,170.519592 
	C123.649139,168.273590 123.649139,165.808929 123.649590,162.390289 
M341.234344,391.114349 
	C349.382080,394.922546 357.325989,399.224426 366.602875,402.310181 
	C366.602875,388.976898 366.605927,376.548340 366.598145,364.119781 
	C366.597351,362.873871 366.134369,361.817474 364.977509,361.239380 
	C356.571533,357.038757 348.190491,352.777069 339.243256,349.591125 
	C338.835388,350.488068 338.469788,350.918610 338.467834,351.350769 
	C338.413147,363.312286 338.401154,375.274048 338.364838,387.235657 
	C338.359802,388.893158 338.939819,390.137848 341.234344,391.114349 
M136.705612,348.146301 
	C142.792191,345.330109 148.878769,342.513916 156.263184,339.097229 
	C146.863586,334.785919 138.788177,331.065155 130.686371,327.402832 
	C130.133743,327.153015 129.281494,327.116180 128.739487,327.360077 
	C120.670250,330.991302 112.629875,334.686646 104.582672,338.366852 
	C104.618614,338.853851 104.654549,339.340851 104.690491,339.827850 
	C110.798622,342.686005 117.033470,345.306854 122.973663,348.479462 
	C127.497536,350.895599 131.664886,351.404785 136.705612,348.146301 
M397.330505,339.832642 
	C398.235107,338.397552 396.845490,338.058380 396.125763,337.715607 
	C389.082672,334.361237 382.000244,331.089386 374.928711,327.794739 
	C373.837128,327.286163 372.637390,326.990204 371.544952,327.480988 
	C363.594055,331.053070 355.673615,334.692993 347.743561,338.311493 
	C347.742706,338.783417 347.741882,339.255371 347.741058,339.727325 
	C355.627411,343.431915 363.505585,347.154205 371.407288,350.825745 
	C372.933289,351.534821 374.317841,350.709412 375.670624,350.080170 
	C382.741699,346.791168 389.809631,343.495270 397.330505,339.832642 
M130.937347,119.919289 
	C138.866821,116.252983 146.796280,112.586685 156.090622,108.289322 
	C146.815170,103.982079 138.908936,100.284355 130.965408,96.668533 
	C130.281189,96.357094 129.225372,96.309242 128.552567,96.609825 
	C120.591339,100.166542 112.670181,103.812950 104.738503,107.435783 
	C104.721649,107.914421 104.704803,108.393066 104.687958,108.871704 
	C113.181366,112.689926 121.146706,117.614731 130.937347,119.919289 
M391.409760,111.868805 
	C393.606842,110.834175 396.129517,110.342888 398.115173,107.703842 
	C389.926819,103.956863 381.970398,100.299683 373.994690,96.685066 
	C372.880402,96.180077 371.722931,96.403046 370.611755,96.919662 
	C362.828339,100.538300 355.038300,104.142654 347.011383,107.862312 
	C349.572083,110.487831 352.816925,110.777138 355.190094,112.482803 
	C367.160339,121.086174 378.957733,120.631279 391.409760,111.868805 
z"/>
<path fill="#000000" opacity="1.000000" stroke="none" 
	d="
M242.939209,267.838196 
	C248.316544,273.472565 248.722366,278.437561 243.821365,283.721222 
	C237.947906,290.053345 231.792419,296.144409 225.483795,302.045593 
	C220.718903,306.502747 215.013626,306.567932 210.182068,302.311737 
	C206.328979,298.917480 202.666229,295.233154 199.370117,291.299561 
	C195.344604,286.495453 195.649490,280.940857 199.981689,276.441895 
	C205.975189,270.217712 212.077423,264.089325 218.328674,258.124908 
	C223.586914,253.107971 230.031693,253.755920 234.109283,259.487732 
	C232.486221,262.398865 229.772232,264.399261 227.553284,266.832672 
	C225.223831,269.387299 223.811035,272.423065 226.511536,275.243195 
	C229.431915,278.292969 232.495789,276.830719 235.245392,274.337189 
	C237.681229,272.128235 239.445877,269.158508 242.939209,267.838196 
z"/>
<path fill="#000000" opacity="1.000000" stroke="none" 
	d="
M272.689514,203.670898 
	C274.501282,201.925171 275.930603,200.262268 277.635132,198.959396 
	C281.848053,195.739212 287.074707,195.801315 291.377228,199.487259 
	C295.277405,202.828506 299.005402,206.437057 302.392639,210.293716 
	C306.530457,215.004990 306.552307,220.559433 302.247437,225.179337 
	C296.134338,231.739761 289.745392,238.064484 283.182770,244.176865 
	C279.124390,247.956757 274.316559,248.090912 270.354828,245.459930 
	C267.954559,243.865952 267.140289,242.222916 269.568329,239.936447 
	C271.502472,238.115051 273.414764,236.248230 275.140625,234.233566 
	C277.184540,231.847565 277.865417,229.060638 275.362640,226.668518 
	C272.965790,224.377701 270.138977,224.725998 267.706604,226.819839 
	C265.697083,228.549713 263.828949,230.459656 262.021240,232.404236 
	C259.781372,234.813675 258.194458,234.240250 256.594971,231.665756 
	C253.785751,227.144043 254.238007,222.344925 258.359650,218.047089 
	C262.959808,213.250259 267.733887,208.620193 272.689514,203.670898 
z"/>
</svg>